<svg width="46" height="46" viewBox="0 0 46 46" fill="none" xmlns="http://www.w3.org/2000/svg">
<g clip-path="url(#clip0_60_79)">
<path d="M22.7 2C14.573 2 8 8.573 8 16.7C8 27.725 22.7 44 22.7 44C22.7 44 37.4 27.725 37.4 16.7C37.4 8.573 30.827 2 22.7 2ZM12.2 16.7C12.2 10.904 16.904 6.2 22.7 6.2C28.496 6.2 33.2 10.904 33.2 16.7C33.2 22.748 27.152 31.799 22.7 37.448C18.332 31.841 12.2 22.685 12.2 16.7Z" fill="white"/>
<path d="M22.7 21.95C25.5995 21.95 27.95 19.5995 27.95 16.7C27.95 13.8005 25.5995 11.45 22.7 11.45C19.8005 11.45 17.45 13.8005 17.45 16.7C17.45 19.5995 19.8005 21.95 22.7 21.95Z" fill="white"/>
</g>
<defs>
<clipPath id="clip0_60_79">
<rect width="46" height="46" fill="white"/>
</clipPath>
</defs>
</svg>
