<svg width="46" height="46" viewBox="0 0 46 46" fill="none" xmlns="http://www.w3.org/2000/svg">
<g clip-path="url(#clip0_60_72)">
<path d="M11.4733 8.22222C11.6 10.1011 11.9167 11.9378 12.4233 13.69L9.89 16.2233C9.02444 13.69 8.47556 11.0089 8.28556 8.22222H11.4733ZM32.2889 33.5978C34.0833 34.1044 35.92 34.4211 37.7778 34.5478V37.6933C34.9911 37.5033 32.31 36.9544 29.7556 36.11L32.2889 33.5978ZM13.5 4H6.11111C4.95 4 4 4.95 4 6.11111C4 25.9344 20.0656 42 39.8889 42C41.05 42 42 41.05 42 39.8889V32.5211C42 31.36 41.05 30.41 39.8889 30.41C37.2711 30.41 34.7167 29.9878 32.3522 29.2067C32.1411 29.1222 31.9089 29.1011 31.6978 29.1011C31.1489 29.1011 30.6211 29.3122 30.1989 29.7133L25.5544 34.3578C19.58 31.2967 14.6822 26.42 11.6422 20.4456L16.2867 15.8011C16.8778 15.21 17.0467 14.3867 16.8144 13.6478C16.0333 11.2833 15.6111 8.75 15.6111 6.11111C15.6111 4.95 14.6611 4 13.5 4Z" fill="white"/>
</g>
<defs>
<clipPath id="clip0_60_72">
<rect width="46" height="46" fill="white"/>
</clipPath>
</defs>
</svg>
