<svg width="46" height="46" viewBox="0 0 46 46" fill="none" xmlns="http://www.w3.org/2000/svg">
<path d="M25.3 23.4025L30.475 28.5775C30.8967 28.9992 31.1075 29.5266 31.1075 30.1599C31.1075 30.7916 30.8967 31.3375 30.475 31.7975C30.015 32.2575 29.4691 32.4875 28.8374 32.4875C28.2041 32.4875 27.6575 32.2575 27.1975 31.7975L22.31 26.91C21.7733 26.3733 21.3708 25.7792 21.1025 25.1275C20.8342 24.4758 20.7 23.7667 20.7 23V16.1C20.7 15.4483 20.9208 14.9017 21.3624 14.4601C21.8025 14.02 22.3483 13.8 23 13.8C23.6517 13.8 24.1983 14.02 24.6399 14.4601C25.08 14.9017 25.3 15.4483 25.3 16.1V23.4025ZM23 4.6C23.6517 4.6 24.1983 4.82003 24.6399 5.2601C25.08 5.7017 25.3 6.24833 25.3 6.9C25.3 7.55167 25.08 8.0983 24.6399 8.5399C24.1983 8.97997 23.6517 9.2 23 9.2C22.3483 9.2 21.8025 8.97997 21.3624 8.5399C20.9208 8.0983 20.7 7.55167 20.7 6.9C20.7 6.24833 20.9208 5.7017 21.3624 5.2601C21.8025 4.82003 22.3483 4.6 23 4.6ZM41.4 23C41.4 23.6517 41.1792 24.1975 40.7376 24.6376C40.2975 25.0792 39.7517 25.3 39.1 25.3C38.4483 25.3 37.9025 25.0792 37.4624 24.6376C37.0208 24.1975 36.8 23.6517 36.8 23C36.8 22.3483 37.0208 21.8017 37.4624 21.3601C37.9025 20.92 38.4483 20.7 39.1 20.7C39.7517 20.7 40.2975 20.92 40.7376 21.3601C41.1792 21.8017 41.4 22.3483 41.4 23ZM23 36.8C23.6517 36.8 24.1983 37.0208 24.6399 37.4624C25.08 37.9025 25.3 38.4483 25.3 39.1C25.3 39.7517 25.08 40.2975 24.6399 40.7376C24.1983 41.1792 23.6517 41.4 23 41.4C22.3483 41.4 21.8025 41.1792 21.3624 40.7376C20.9208 40.2975 20.7 39.7517 20.7 39.1C20.7 38.4483 20.9208 37.9025 21.3624 37.4624C21.8025 37.0208 22.3483 36.8 23 36.8ZM9.2 23C9.2 23.6517 8.97997 24.1975 8.5399 24.6376C8.0983 25.0792 7.55167 25.3 6.9 25.3C6.24833 25.3 5.7017 25.0792 5.2601 24.6376C4.82003 24.1975 4.6 23.6517 4.6 23C4.6 22.3483 4.82003 21.8017 5.2601 21.3601C5.7017 20.92 6.24833 20.7 6.9 20.7C7.55167 20.7 8.0983 20.92 8.5399 21.3601C8.97997 21.8017 9.2 22.3483 9.2 23ZM23 46C19.8183 46 16.8283 45.3959 14.03 44.1876C11.2317 42.9809 8.7975 41.3425 6.7275 39.2725C4.6575 37.2025 3.01913 34.7683 1.8124 31.97C0.604134 29.1717 0 26.1817 0 23C0 19.8183 0.604134 16.8283 1.8124 14.03C3.01913 11.2317 4.6575 8.7975 6.7275 6.7275C8.7975 4.6575 11.2317 3.01837 14.03 1.8101C16.8283 0.603366 19.8183 0 23 0C26.1817 0 29.1717 0.603366 31.97 1.8101C34.7683 3.01837 37.2025 4.6575 39.2725 6.7275C41.3425 8.7975 42.9809 11.2317 44.1876 14.03C45.3959 16.8283 46 19.8183 46 23C46 26.1817 45.3959 29.1717 44.1876 31.97C42.9809 34.7683 41.3425 37.2025 39.2725 39.2725C37.2025 41.3425 34.7683 42.9809 31.97 44.1876C29.1717 45.3959 26.1817 46 23 46ZM23 41.4C28.1367 41.4 32.4875 39.6175 36.0525 36.0525C39.6175 32.4875 41.4 28.1367 41.4 23C41.4 17.8633 39.6175 13.5125 36.0525 9.9475C32.4875 6.3825 28.1367 4.6 23 4.6C17.8633 4.6 13.5125 6.3825 9.9475 9.9475C6.3825 13.5125 4.6 17.8633 4.6 23C4.6 28.1367 6.3825 32.4875 9.9475 36.0525C13.5125 39.6175 17.8633 41.4 23 41.4Z" fill="white"/>
</svg>
